<svg width="460" height="540" viewBox="0 0 460 540" fill="none" xmlns="http://www.w3.org/2000/svg">
<g filter="url(#filter0_dd_1507_417)">
<path d="M115.288 499.64C109.869 499.64 104.792 498.616 100.056 496.568C99.544 496.355 99.1173 496.013 98.776 495.544C98.4347 495.032 98.264 494.499 98.264 493.944C98.264 493.219 98.4987 492.6 98.968 492.088C99.48 491.533 100.12 491.256 100.888 491.256C101.315 491.256 101.72 491.341 102.104 491.512C106.029 493.261 110.232 494.136 114.712 494.136C122.179 494.136 125.912 491.683 125.912 486.776C125.912 485.496 125.421 484.429 124.44 483.576C123.501 482.723 122.328 482.061 120.92 481.592C119.512 481.08 117.507 480.483 114.904 479.8C111.448 478.904 108.653 478.051 106.52 477.24C104.387 476.387 102.552 475.128 101.016 473.464C99.48 471.8 98.712 469.581 98.712 466.808C98.712 464.376 99.352 462.179 100.632 460.216C101.912 458.211 103.789 456.632 106.264 455.48C108.781 454.285 111.789 453.688 115.288 453.688C119.981 453.688 124.227 454.392 128.024 455.8C129.219 456.227 129.816 457.08 129.816 458.36C129.816 459.043 129.581 459.661 129.112 460.216C128.643 460.771 128.024 461.048 127.256 461.048C127 461.048 126.659 460.963 126.232 460.792C122.904 459.64 119.469 459.064 115.928 459.064C112.557 459.064 109.805 459.704 107.672 460.984C105.581 462.264 104.536 464.056 104.536 466.36C104.536 467.896 105.027 469.155 106.008 470.136C107.032 471.075 108.291 471.821 109.784 472.376C111.32 472.888 113.389 473.443 115.992 474.04C119.363 474.851 122.072 475.661 124.12 476.472C126.211 477.283 127.981 478.541 129.432 480.248C130.925 481.955 131.672 484.259 131.672 487.16C131.672 489.549 130.989 491.704 129.624 493.624C128.259 495.501 126.339 496.973 123.864 498.04C121.389 499.107 118.531 499.64 115.288 499.64ZM147.159 499.32C146.306 499.32 145.538 499.064 144.855 498.552C144.172 498.04 143.703 497.4 143.447 496.632L134.359 470.008C134.231 469.624 134.167 469.261 134.167 468.92C134.167 468.109 134.444 467.427 134.999 466.872C135.554 466.317 136.236 466.04 137.047 466.04C137.644 466.04 138.178 466.211 138.647 466.552C139.159 466.851 139.5 467.256 139.671 467.768L147.159 492.408L154.583 468.344C154.796 467.661 155.18 467.107 155.735 466.68C156.332 466.253 156.994 466.04 157.719 466.04C158.444 466.04 159.084 466.253 159.639 466.68C160.236 467.107 160.642 467.661 160.855 468.344L168.279 492.408L175.767 467.768C175.938 467.256 176.258 466.851 176.727 466.552C177.239 466.211 177.794 466.04 178.391 466.04C179.202 466.04 179.884 466.317 180.439 466.872C180.994 467.427 181.271 468.109 181.271 468.92C181.271 469.261 181.207 469.624 181.079 470.008L171.991 496.632C171.735 497.4 171.266 498.04 170.583 498.552C169.9 499.064 169.132 499.32 168.279 499.32C167.426 499.32 166.658 499.064 165.975 498.552C165.292 498.04 164.802 497.379 164.503 496.568L157.719 475.384L150.935 496.568C150.636 497.379 150.146 498.04 149.463 498.552C148.78 499.064 148.012 499.32 147.159 499.32ZM196.064 499.64C194.186 499.64 192.437 499.256 190.816 498.488C189.237 497.72 187.978 496.611 187.04 495.16C186.101 493.667 185.632 491.96 185.632 490.04C185.632 486.883 186.869 484.365 189.344 482.488C191.861 480.611 195.53 479.672 200.352 479.672H208.096V479.16C208.096 476.344 207.392 474.317 205.984 473.08C204.618 471.843 202.464 471.224 199.52 471.224C197.898 471.224 196.448 471.352 195.168 471.608C193.93 471.864 192.544 472.248 191.008 472.76C190.666 472.845 190.389 472.888 190.176 472.888C189.536 472.888 188.981 472.653 188.512 472.184C188.042 471.715 187.808 471.139 187.808 470.456C187.808 469.304 188.362 468.493 189.472 468.024C193.098 466.488 196.789 465.72 200.544 465.72C203.488 465.72 205.962 466.317 207.968 467.512C210.016 468.707 211.509 470.264 212.448 472.184C213.429 474.061 213.92 476.109 213.92 478.328V496.44C213.92 497.251 213.621 497.933 213.024 498.488C212.469 499.043 211.786 499.32 210.976 499.32C210.165 499.32 209.482 499.043 208.928 498.488C208.373 497.933 208.096 497.251 208.096 496.44V494.776C204.938 498.019 200.928 499.64 196.064 499.64ZM198.24 494.52C200.117 494.52 201.93 494.072 203.68 493.176C205.429 492.237 206.901 491.085 208.096 489.72V484.344H201.12C194.677 484.344 191.456 486.029 191.456 489.4C191.456 490.936 191.968 492.173 192.992 493.112C194.058 494.051 195.808 494.52 198.24 494.52ZM230.415 514.04C229.647 514.04 228.985 513.763 228.431 513.208C227.919 512.653 227.663 511.992 227.663 511.224C227.663 510.883 227.727 510.541 227.855 510.2L232.015 499.512L219.983 470.2C219.812 469.773 219.727 469.368 219.727 468.984C219.727 468.173 220.004 467.491 220.559 466.936C221.113 466.339 221.796 466.04 222.607 466.04C223.204 466.04 223.737 466.211 224.207 466.552C224.719 466.893 225.081 467.32 225.295 467.832L235.151 492.28L245.199 467.96C245.753 466.68 246.649 466.04 247.887 466.04C248.697 466.04 249.38 466.339 249.935 466.936C250.489 467.491 250.767 468.173 250.767 468.984C250.767 469.368 250.703 469.731 250.575 470.072L233.103 512.056C232.505 513.379 231.609 514.04 230.415 514.04Z" fill="#49D1F8"/>
</g>
<g filter="url(#filter1_dd_1507_417)">
<path d="M275.784 489C275.784 488.872 275.784 488.744 275.848 488.552C273.928 488.936 272.072 489.384 270.216 489.832C268.68 490.152 267.144 490.536 265.608 490.984C265.224 491.048 264.904 491.304 264.584 491.432C263.304 491.688 262.088 491.944 260.872 491.56C260.808 491.56 260.744 491.56 260.744 491.56C260.424 491.304 260.168 491.048 259.848 490.792C260.104 490.472 260.296 490.088 260.616 489.96C262.792 488.744 265.16 488.04 267.592 487.4C270.408 486.696 273.288 485.992 276.168 485.288C276.552 485.16 276.744 484.968 276.872 484.584C277.32 482.536 277.896 480.488 278.28 478.44C278.472 477.672 278.344 476.776 278.216 475.944C277.192 470.376 273.928 466.664 268.68 464.616C265.736 463.464 262.728 462.824 259.656 462.184C257.928 461.8 256.2 461.288 254.472 460.776C253.896 460.648 253.384 460.328 252.936 459.944C251.912 459.176 251.656 458.088 252.36 457C252.936 456.168 253.64 455.4 254.408 454.76C256.84 452.84 259.592 451.432 262.344 450.152C268.936 447.016 275.848 444.648 282.888 442.6C291.784 439.912 300.808 437.736 309.896 436.008C317.704 434.536 325.448 433.192 333.256 431.784C334.344 431.592 335.432 431.336 336.52 431.08C336.904 431.016 337.224 430.824 337.608 430.696C339.336 429.928 341.064 429.864 342.856 430.632C343.88 431.144 343.88 431.784 343.176 432.744C342.536 433.64 341.704 433.64 340.744 433.704C339.848 433.832 338.952 434.152 338.056 434.344C333.64 435.112 329.224 435.88 324.808 436.648C309.448 439.208 294.28 442.216 279.432 447.016C273.992 448.808 268.488 450.728 263.368 453.352C261.64 454.248 260.04 455.336 258.376 456.36C257.928 456.68 257.544 457.128 257.224 457.512C256.52 458.408 256.712 459.112 257.736 459.432C258.952 459.88 260.168 460.2 261.384 460.456C264.648 461.288 267.976 461.992 271.176 463.272C273.736 464.296 276.232 465.576 278.088 467.688C278.856 468.584 279.496 469.608 280.2 470.632C280.456 469.736 280.712 468.776 280.904 467.816C282.376 462.184 283.72 456.488 285.576 450.92C285.96 449.832 286.472 448.68 286.92 447.592C287.24 446.568 288.008 446.12 288.968 446.12C289.736 446.12 290.568 446.184 291.272 446.376C292.296 446.696 292.488 447.144 292.296 448.168C291.848 450.28 291.4 452.392 290.952 454.568C290.696 455.592 290.568 456.616 290.312 457.64C289.992 459.048 289.544 460.456 289.224 461.928C287.624 468.904 286.088 475.88 284.488 482.856C284.424 482.984 284.424 483.176 284.36 483.368C284.872 483.304 285.32 483.176 285.768 483.112C288.776 482.536 291.72 481.96 294.728 481.448C296.072 481.192 297.416 481.192 298.76 481.576C299.208 481.768 299.72 482.024 300.104 482.344C300.616 482.792 300.616 483.304 300.04 483.752C299.784 483.944 299.528 484.136 299.272 484.264C296.904 485.416 294.536 486.376 291.976 486.696C290.632 486.888 289.288 486.888 288.072 486.184C287.944 486.12 287.752 486.12 287.56 486.184C286.344 486.376 285.128 486.632 283.912 486.888C283.72 486.952 283.528 487.144 283.464 487.336C281.992 493.224 280.52 499.112 279.112 505.064C278.792 506.344 278.6 507.624 278.28 508.904C277.64 511.144 276.296 513.064 275.08 515.048C274.888 515.368 274.376 515.624 273.928 515.688C272.904 515.944 271.944 515.816 270.984 515.304C270.6 515.112 270.344 514.856 270.472 514.344C271.88 507.624 273.224 500.84 274.632 494.056C274.952 492.328 275.4 490.664 275.784 489ZM326.957 480.744C326.445 479.912 325.997 479.08 325.485 478.184C324.845 478.888 324.269 479.592 323.693 480.232C317.869 487.144 312.365 494.312 307.309 501.8C306.221 503.4 305.389 505.128 304.429 506.856C304.429 506.92 304.365 506.984 304.365 507.048C303.981 507.496 302.701 507.688 301.869 507.304C301.229 507.048 300.909 506.472 301.165 505.768C301.421 504.872 301.741 504.04 302.125 503.272C304.685 498.6 307.181 493.928 310.189 489.64C313.453 484.968 317.101 480.616 320.749 476.264C321.389 475.496 322.029 474.728 322.733 473.96C323.053 473.64 323.053 473.384 322.861 473C320.685 468.52 318.701 463.976 317.357 459.24C316.781 457.192 316.269 455.08 315.885 453.032C315.565 451.304 316.077 450.728 317.741 450.6C318.061 450.6 318.317 450.6 318.637 450.6C319.661 450.664 320.429 451.112 320.813 452.2C322.157 455.912 323.565 459.624 325.037 463.272C325.677 464.936 326.381 466.6 327.085 468.2C327.149 468.392 327.213 468.52 327.341 468.712C327.597 468.392 327.789 468.2 328.045 467.944C335.597 459.432 343.853 451.496 352.237 443.816C354.477 441.832 356.589 439.848 358.829 437.864C360.685 436.328 362.861 435.752 365.293 436.328C366.957 436.776 367.021 437.8 366.125 439.08C365.677 439.848 364.909 440.424 364.269 441C359.021 445.608 353.773 450.216 348.525 454.824C342.125 460.584 336.045 466.664 330.157 473C329.453 473.768 329.453 473.448 329.965 474.408C335.085 484.584 340.845 494.376 347.885 503.336C349.037 504.872 350.189 506.408 351.341 507.944C351.789 508.456 351.661 508.776 351.021 508.968C349.997 509.224 349.037 509.096 348.205 508.264C339.885 500.072 332.589 491.048 326.957 480.744Z" fill="#FF7070"/>
</g>
<g filter="url(#filter2_dd_1507_417)">
<path d="M229.232 390.316L230.299 390.722L231.367 390.316L432.8 313.701V338.646L230.301 415.901L28 338.646V313.665L229.232 390.316Z" stroke="#FF7070" stroke-width="6"/>
</g>
<g filter="url(#filter3_dd_1507_417)">
<path d="M66.5 289.434C62.7345 290.794 58.9314 292.097 55.16 293.389C50.774 294.892 46.43 296.38 42.181 297.947C40.962 298.369 37.071 299.857 33.363 301.287L230.301 376.302L427.398 301.336C417.116 297.431 406.906 293.62 396.714 289.815C378.857 283.15 361.052 276.504 343.002 269.404L342.992 269.4C313.96 257.867 283.919 249.923 253.174 255.757C245.264 257.339 237.513 259.546 229.65 261.785C228.961 261.981 228.272 262.177 227.582 262.373C219.05 264.796 210.378 267.19 201.493 268.671L201.474 268.674L201.455 268.677C193.53 269.893 185.838 269.246 178.403 268.379C177.111 268.229 175.83 268.072 174.557 267.917C168.399 267.164 162.414 266.432 156.242 266.512C139.521 266.761 122.728 269.589 106.5 274.378" stroke="#F5E755" stroke-width="6" stroke-linecap="round"/>
</g>
<g filter="url(#filter4_dd_1507_417)">
<path d="M186.455 188.736C187.159 188.349 187.86 187.965 188.563 187.579C207.223 177.396 227.746 165.892 242.459 150.898C251.254 141.935 257.901 131.804 260.791 120L251.073 117C247.695 132.008 236.928 144.049 224.313 153.602C209.23 165.045 192.372 174.082 175.789 182.972L175.783 182.975L175.704 183.017C169.762 186.203 163.856 189.369 158.078 192.623C117.392 215.759 76.605 251.626 78.595 301.132C78.87 304.42 81.46 306.187 84.388 306.187C85.841 306.187 87.104 305.72 87.932 304.98C88.689 304.304 89.288 303.229 89.204 301.455L89.203 301.443C87.161 254.895 123.715 225.552 159.427 204.058C160.354 203.5 163 204.058 163 204.058C199.6 211.687 238.997 207.877 272.5 192.731L249.5 190.607C227.885 197.443 204.884 199.835 182.222 197.282C180.924 197.136 179.87 196.166 179.615 194.885C179.361 193.603 179.966 192.305 181.11 191.674C182.911 190.681 184.696 189.701 186.455 188.736Z" stroke="#FEDEDC" stroke-width="6" stroke-linejoin="round"/>
</g>
<g filter="url(#filter5_dd_1507_417)">
<path d="M258.177 47.973C252.162 50.673 246.09 53.167 239.968 55.682C238.658 56.22 237.346 56.759 236.031 57.301C228.599 60.366 221.125 63.522 213.783 67.116C211.358 68.297 208.326 69.991 205.009 71.846C204.329 72.225 203.638 72.612 202.937 73.002C198.761 75.327 194.159 77.839 189.465 80.063C184.763 82.292 180.055 84.189 175.681 85.314C171.277 86.447 167.461 86.731 164.416 85.999C163.059 85.658 161.842 85.108 161.121 84.507L161.028 84.43L160.93 84.361C159.252 83.177 158.253 81.222 158.038 78.831C157.822 76.42 158.44 73.796 159.747 71.698L159.761 71.674L159.775 71.651C162.102 67.758 166.125 63.75 170.814 60.072C175.466 56.423 180.586 53.243 184.901 50.965L184.913 50.958C196.538 44.752 208.65 39.73 221.148 35.99C222.596 35.569 224.039 35.145 225.479 34.723C236.493 31.488 247.298 28.316 258.401 27.197L258.416 27.195L258.431 27.194C261.326 26.872 267.423 26.828 272.629 28.046C275.243 28.657 277.355 29.524 278.732 30.606C279.998 31.602 280.558 32.684 280.502 34.094L280.501 34.135L280.5 34.175C280.489 35.057 279.977 36.236 278.413 37.723C276.878 39.182 274.673 40.603 272.119 41.943C268.586 43.797 264.966 45.23 261.993 46.408C260.537 46.985 259.236 47.5 258.177 47.973Z" stroke="#C7E133" stroke-width="6"/>
</g>
<g filter="url(#filter6_dd_1507_417)">
<path d="M389.71 76.516L390.083 76.265C392.8 74.437 395.722 72.465 398.535 70.44C401.352 68.412 404.008 66.367 406.196 64.405C408.422 62.408 409.983 60.655 410.79 59.232C412.739 55.784 411.898 52.084 408.781 48.435C405.631 44.747 400.553 41.719 395.715 40.407C385.786 37.722 375.207 37.265 364.398 37.709C357.435 37.996 350.552 38.641 343.709 39.283C339.838 39.646 335.981 40.008 332.129 40.303H332.125C308.736 42.065 284.825 50.104 263.934 59.999C263.119 60.423 262.33 60.819 261.56 61.205L256.484 63.919C250.793 67.157 245.838 70.557 242.166 74.678C236.743 81.094 235.556 86.226 236.371 90.213C237.206 94.303 240.319 98.067 245.348 101.301C255.444 107.793 271.605 111.042 283.846 110.416C285.729 110.319 287.621 110.202 289.52 110.065C290.985 109.959 292.312 110.93 292.654 112.36C292.665 112.409 292.678 112.458 292.691 112.508C294.263 117.829 299.155 122.194 304.922 124.057C310.84 125.969 317.441 125.916 324.113 125.518C348.176 123.939 371.949 118.316 394.144 109.044C394.155 109.039 394.166 109.034 394.177 109.03C394.187 109.026 394.197 109.022 394.207 109.018C398.721 107.252 402.432 105.467 405.227 102.452C407.812 99.224 408.756 95.346 407.322 92.464C406.41 90.681 404.774 89.417 402.499 88.555C400.193 87.681 397.434 87.305 394.697 87.21L394.67 87.209C390.951 87.047 387.255 87.235 383.539 87.619C382.173 87.76 380.887 86.957 380.414 85.668C379.941 84.38 380.403 82.935 381.536 82.16L389.71 76.516Z" stroke="#C7E133" stroke-width="6" stroke-linejoin="round"/>
</g>
<g filter="url(#filter7_dd_1507_417)">
<path d="M311.562 204.936C311.265 203.386 311.733 201.847 313.059 200.137C314.398 198.409 316.403 196.801 318.52 195.437C324.363 191.703 340.499 183.83 356.211 179.635C364.083 177.534 371.566 176.435 377.48 177.079C383.336 177.716 387.067 179.953 388.719 184.037C389.803 186.722 389.839 188.968 389.239 190.918C388.624 192.919 387.254 194.88 385.078 196.782C380.663 200.642 373.486 203.776 365.152 206.152C356.898 208.505 347.846 210.022 339.975 210.837C332.041 211.659 325.555 211.741 322.38 211.336L322.37 211.335L322.359 211.334C319.712 211.014 317.009 210.272 314.952 209.096C312.91 207.927 311.819 206.534 311.562 204.936Z" stroke="#C7E133" stroke-width="6"/>
</g>
<g filter="url(#filter8_dd_1507_417)">
<path d="M187.525 143.975C182.106 145.895 174.583 144.865 169.358 141.584C166.794 139.974 165.019 137.968 164.219 135.783C163.45 133.681 163.455 131.074 165.072 127.877C166.558 124.994 169.678 121.27 173.963 117.393C178.205 113.554 183.406 109.731 188.842 106.615C194.297 103.487 199.861 101.144 204.839 100.147C209.861 99.142 213.86 99.583 216.651 101.418L216.665 101.427L216.678 101.435C219.596 103.312 221.015 107.453 220.433 111.366C219.484 117.612 214.631 124.654 207.988 130.872C201.407 137.03 193.586 141.893 187.525 143.975Z" stroke="#C7E133" stroke-width="6"/>
</g>
<g filter="url(#filter9_dd_1507_417)">
<path d="M261.356 181.033C259.417 180.802 257.464 180.358 255.939 179.615C254.438 178.884 253.669 178.031 253.386 177.091C253.113 176.075 253.391 174.914 254.643 173.448C255.916 171.959 257.877 170.571 259.92 169.455C267.612 165.388 275.796 161.94 284.175 159.3C284.412 159.225 284.64 159.121 284.852 158.989C285.052 158.865 285.254 158.747 285.457 158.634C285.474 158.625 285.491 158.615 285.508 158.606C308.412 145.294 335.096 138.705 361.545 138.312C361.571 138.311 361.598 138.311 361.625 138.309C363.725 138.222 365.9 138.521 367.51 139.209C369.077 139.878 369.686 140.693 369.83 141.539C369.928 142.366 369.647 143.291 368.788 144.387C367.904 145.517 366.587 146.579 365.174 147.491L365.168 147.495C355.489 153.77 344.655 158.785 333.358 162.04C332.058 162.415 331.169 163.614 331.189 164.967C331.2 165.707 331.074 166.432 330.816 167.095C329.552 170.158 326.275 171.992 321.875 173.593L321.84 173.605C302.684 180.838 281.769 183.475 261.356 181.033Z" stroke="#C7E133" stroke-width="6" stroke-linejoin="round"/>
</g>
<g filter="url(#filter10_dd_1507_417)">
<path d="M147.692 120.75L147.731 120.889C148.017 121.825 147.93 122.941 147.37 124.322C146.805 125.716 145.837 127.173 144.676 128.614C138.353 136.251 127.33 143.121 117.173 143.312C113.983 143.31 111.862 142.908 110.564 142.373C109.308 141.855 109.12 141.356 109.076 141.201C109.002 140.94 108.963 140.229 109.694 138.89C110.408 137.582 111.695 135.993 113.626 134.225L113.635 134.216C113.813 134.052 114.006 133.873 114.212 133.683C117.839 130.325 125.598 123.142 133.118 118.827C137.17 116.502 140.592 115.348 143.016 115.553C144.114 115.646 144.956 116.011 145.65 116.676C146.381 117.377 147.148 118.606 147.692 120.75Z" stroke="#C7E133" stroke-width="6"/>
</g>
<defs>
<filter id="filter0_dd_1507_417" x="74.264" y="429.688" width="200.502" height="108.352" filterUnits="userSpaceOnUse" color-interpolation-filters="sRGB">
<feFlood flood-opacity="0" result="BackgroundImageFix"/>
<feColorMatrix in="SourceAlpha" type="matrix" values="0 0 0 0 0 0 0 0 0 0 0 0 0 0 0 0 0 0 127 0" result="hardAlpha"/>
<feOffset/>
<feGaussianBlur stdDeviation="6"/>
<feColorMatrix type="matrix" values="0 0 0 0 0.286275 0 0 0 0 0.819608 0 0 0 0 0.972549 0 0 0 1 0"/>
<feBlend mode="normal" in2="BackgroundImageFix" result="effect1_dropShadow_1507_417"/>
<feColorMatrix in="SourceAlpha" type="matrix" values="0 0 0 0 0 0 0 0 0 0 0 0 0 0 0 0 0 0 127 0" result="hardAlpha"/>
<feOffset/>
<feGaussianBlur stdDeviation="12"/>
<feColorMatrix type="matrix" values="0 0 0 0 0.286275 0 0 0 0 0.819608 0 0 0 0 0.972549 0 0 0 1 0"/>
<feBlend mode="normal" in2="effect1_dropShadow_1507_417" result="effect2_dropShadow_1507_417"/>
<feBlend mode="normal" in="SourceGraphic" in2="effect2_dropShadow_1507_417" result="shape"/>
</filter>
<filter id="filter1_dd_1507_417" x="227.656" y="405.864" width="163.365" height="134.08" filterUnits="userSpaceOnUse" color-interpolation-filters="sRGB">
<feFlood flood-opacity="0" result="BackgroundImageFix"/>
<feColorMatrix in="SourceAlpha" type="matrix" values="0 0 0 0 0 0 0 0 0 0 0 0 0 0 0 0 0 0 127 0" result="hardAlpha"/>
<feOffset/>
<feGaussianBlur stdDeviation="4"/>
<feColorMatrix type="matrix" values="0 0 0 0 1 0 0 0 0 0.439216 0 0 0 0 0.439216 0 0 0 1 0"/>
<feBlend mode="normal" in2="BackgroundImageFix" result="effect1_dropShadow_1507_417"/>
<feColorMatrix in="SourceAlpha" type="matrix" values="0 0 0 0 0 0 0 0 0 0 0 0 0 0 0 0 0 0 127 0" result="hardAlpha"/>
<feOffset/>
<feGaussianBlur stdDeviation="12"/>
<feColorMatrix type="matrix" values="0 0 0 0 1 0 0 0 0 0.439216 0 0 0 0 0.439216 0 0 0 1 0"/>
<feBlend mode="normal" in2="effect1_dropShadow_1507_417" result="effect2_dropShadow_1507_417"/>
<feBlend mode="normal" in="SourceGraphic" in2="effect2_dropShadow_1507_417" result="shape"/>
</filter>
<filter id="filter2_dd_1507_417" x="1" y="285.312" width="458.8" height="157.8" filterUnits="userSpaceOnUse" color-interpolation-filters="sRGB">
<feFlood flood-opacity="0" result="BackgroundImageFix"/>
<feColorMatrix in="SourceAlpha" type="matrix" values="0 0 0 0 0 0 0 0 0 0 0 0 0 0 0 0 0 0 127 0" result="hardAlpha"/>
<feOffset/>
<feGaussianBlur stdDeviation="6"/>
<feColorMatrix type="matrix" values="0 0 0 0 1 0 0 0 0 0.439216 0 0 0 0 0.439216 0 0 0 1 0"/>
<feBlend mode="normal" in2="BackgroundImageFix" result="effect1_dropShadow_1507_417"/>
<feColorMatrix in="SourceAlpha" type="matrix" values="0 0 0 0 0 0 0 0 0 0 0 0 0 0 0 0 0 0 127 0" result="hardAlpha"/>
<feOffset/>
<feGaussianBlur stdDeviation="12"/>
<feColorMatrix type="matrix" values="0 0 0 0 1 0 0 0 0 0.439216 0 0 0 0 0.439216 0 0 0 1 0"/>
<feBlend mode="normal" in2="effect1_dropShadow_1507_417" result="effect2_dropShadow_1507_417"/>
<feBlend mode="normal" in="SourceGraphic" in2="effect2_dropShadow_1507_417" result="shape"/>
</filter>
<filter id="filter3_dd_1507_417" x="0.980591" y="226.794" width="458.862" height="176.718" filterUnits="userSpaceOnUse" color-interpolation-filters="sRGB">
<feFlood flood-opacity="0" result="BackgroundImageFix"/>
<feColorMatrix in="SourceAlpha" type="matrix" values="0 0 0 0 0 0 0 0 0 0 0 0 0 0 0 0 0 0 127 0" result="hardAlpha"/>
<feOffset/>
<feGaussianBlur stdDeviation="6"/>
<feColorMatrix type="matrix" values="0 0 0 0 0.960784 0 0 0 0 0.905882 0 0 0 0 0.333333 0 0 0 1 0"/>
<feBlend mode="normal" in2="BackgroundImageFix" result="effect1_dropShadow_1507_417"/>
<feColorMatrix in="SourceAlpha" type="matrix" values="0 0 0 0 0 0 0 0 0 0 0 0 0 0 0 0 0 0 127 0" result="hardAlpha"/>
<feOffset/>
<feGaussianBlur stdDeviation="12"/>
<feColorMatrix type="matrix" values="0 0 0 0 0.960784 0 0 0 0 0.905882 0 0 0 0 0.333333 0 0 0 1 0"/>
<feBlend mode="normal" in2="effect1_dropShadow_1507_417" result="effect2_dropShadow_1507_417"/>
<feBlend mode="normal" in="SourceGraphic" in2="effect2_dropShadow_1507_417" result="shape"/>
</filter>
<filter id="filter4_dd_1507_417" x="51.5248" y="90" width="247.975" height="243.187" filterUnits="userSpaceOnUse" color-interpolation-filters="sRGB">
<feFlood flood-opacity="0" result="BackgroundImageFix"/>
<feColorMatrix in="SourceAlpha" type="matrix" values="0 0 0 0 0 0 0 0 0 0 0 0 0 0 0 0 0 0 127 0" result="hardAlpha"/>
<feOffset/>
<feGaussianBlur stdDeviation="6"/>
<feColorMatrix type="matrix" values="0 0 0 0 0.996078 0 0 0 0 0.870588 0 0 0 0 0.862745 0 0 0 1 0"/>
<feBlend mode="normal" in2="BackgroundImageFix" result="effect1_dropShadow_1507_417"/>
<feColorMatrix in="SourceAlpha" type="matrix" values="0 0 0 0 0 0 0 0 0 0 0 0 0 0 0 0 0 0 127 0" result="hardAlpha"/>
<feOffset/>
<feGaussianBlur stdDeviation="12"/>
<feColorMatrix type="matrix" values="0 0 0 0 0.996078 0 0 0 0 0.870588 0 0 0 0 0.862745 0 0 0 1 0"/>
<feBlend mode="normal" in2="effect1_dropShadow_1507_417" result="effect2_dropShadow_1507_417"/>
<feBlend mode="normal" in="SourceGraphic" in2="effect2_dropShadow_1507_417" result="shape"/>
</filter>
<filter id="filter5_dd_1507_417" x="130.996" y="0.000289917" width="176.51" height="113.402" filterUnits="userSpaceOnUse" color-interpolation-filters="sRGB">
<feFlood flood-opacity="0" result="BackgroundImageFix"/>
<feColorMatrix in="SourceAlpha" type="matrix" values="0 0 0 0 0 0 0 0 0 0 0 0 0 0 0 0 0 0 127 0" result="hardAlpha"/>
<feOffset/>
<feGaussianBlur stdDeviation="6"/>
<feColorMatrix type="matrix" values="0 0 0 0 0.780392 0 0 0 0 0.882353 0 0 0 0 0.2 0 0 0 1 0"/>
<feBlend mode="normal" in2="BackgroundImageFix" result="effect1_dropShadow_1507_417"/>
<feColorMatrix in="SourceAlpha" type="matrix" values="0 0 0 0 0 0 0 0 0 0 0 0 0 0 0 0 0 0 127 0" result="hardAlpha"/>
<feOffset/>
<feGaussianBlur stdDeviation="12"/>
<feColorMatrix type="matrix" values="0 0 0 0 0.780392 0 0 0 0 0.882353 0 0 0 0 0.2 0 0 0 1 0"/>
<feBlend mode="normal" in2="effect1_dropShadow_1507_417" result="effect2_dropShadow_1507_417"/>
<feBlend mode="normal" in="SourceGraphic" in2="effect2_dropShadow_1507_417" result="shape"/>
</filter>
<filter id="filter6_dd_1507_417" x="209.137" y="10.5606" width="229.698" height="142.181" filterUnits="userSpaceOnUse" color-interpolation-filters="sRGB">
<feFlood flood-opacity="0" result="BackgroundImageFix"/>
<feColorMatrix in="SourceAlpha" type="matrix" values="0 0 0 0 0 0 0 0 0 0 0 0 0 0 0 0 0 0 127 0" result="hardAlpha"/>
<feOffset/>
<feGaussianBlur stdDeviation="6"/>
<feColorMatrix type="matrix" values="0 0 0 0 0.780392 0 0 0 0 0.882353 0 0 0 0 0.2 0 0 0 1 0"/>
<feBlend mode="normal" in2="BackgroundImageFix" result="effect1_dropShadow_1507_417"/>
<feColorMatrix in="SourceAlpha" type="matrix" values="0 0 0 0 0 0 0 0 0 0 0 0 0 0 0 0 0 0 127 0" result="hardAlpha"/>
<feOffset/>
<feGaussianBlur stdDeviation="12"/>
<feColorMatrix type="matrix" values="0 0 0 0 0.780392 0 0 0 0 0.882353 0 0 0 0 0.2 0 0 0 1 0"/>
<feBlend mode="normal" in2="effect1_dropShadow_1507_417" result="effect2_dropShadow_1507_417"/>
<feBlend mode="normal" in="SourceGraphic" in2="effect2_dropShadow_1507_417" result="shape"/>
</filter>
<filter id="filter7_dd_1507_417" x="284.475" y="149.896" width="132.153" height="88.6769" filterUnits="userSpaceOnUse" color-interpolation-filters="sRGB">
<feFlood flood-opacity="0" result="BackgroundImageFix"/>
<feColorMatrix in="SourceAlpha" type="matrix" values="0 0 0 0 0 0 0 0 0 0 0 0 0 0 0 0 0 0 127 0" result="hardAlpha"/>
<feOffset/>
<feGaussianBlur stdDeviation="6"/>
<feColorMatrix type="matrix" values="0 0 0 0 0.780392 0 0 0 0 0.882353 0 0 0 0 0.2 0 0 0 1 0"/>
<feBlend mode="normal" in2="BackgroundImageFix" result="effect1_dropShadow_1507_417"/>
<feColorMatrix in="SourceAlpha" type="matrix" values="0 0 0 0 0 0 0 0 0 0 0 0 0 0 0 0 0 0 127 0" result="hardAlpha"/>
<feOffset/>
<feGaussianBlur stdDeviation="12"/>
<feColorMatrix type="matrix" values="0 0 0 0 0.780392 0 0 0 0 0.882353 0 0 0 0 0.2 0 0 0 1 0"/>
<feBlend mode="normal" in2="effect1_dropShadow_1507_417" result="effect2_dropShadow_1507_417"/>
<feBlend mode="normal" in="SourceGraphic" in2="effect2_dropShadow_1507_417" result="shape"/>
</filter>
<filter id="filter8_dd_1507_417" x="136.721" y="72.6216" width="110.838" height="99.3166" filterUnits="userSpaceOnUse" color-interpolation-filters="sRGB">
<feFlood flood-opacity="0" result="BackgroundImageFix"/>
<feColorMatrix in="SourceAlpha" type="matrix" values="0 0 0 0 0 0 0 0 0 0 0 0 0 0 0 0 0 0 127 0" result="hardAlpha"/>
<feOffset/>
<feGaussianBlur stdDeviation="6"/>
<feColorMatrix type="matrix" values="0 0 0 0 0.780392 0 0 0 0 0.882353 0 0 0 0 0.2 0 0 0 1 0"/>
<feBlend mode="normal" in2="BackgroundImageFix" result="effect1_dropShadow_1507_417"/>
<feColorMatrix in="SourceAlpha" type="matrix" values="0 0 0 0 0 0 0 0 0 0 0 0 0 0 0 0 0 0 127 0" result="hardAlpha"/>
<feOffset/>
<feGaussianBlur stdDeviation="12"/>
<feColorMatrix type="matrix" values="0 0 0 0 0.780392 0 0 0 0 0.882353 0 0 0 0 0.2 0 0 0 1 0"/>
<feBlend mode="normal" in2="effect1_dropShadow_1507_417" result="effect2_dropShadow_1507_417"/>
<feBlend mode="normal" in="SourceGraphic" in2="effect2_dropShadow_1507_417" result="shape"/>
</filter>
<filter id="filter9_dd_1507_417" x="226.287" y="111.294" width="170.562" height="97.6261" filterUnits="userSpaceOnUse" color-interpolation-filters="sRGB">
<feFlood flood-opacity="0" result="BackgroundImageFix"/>
<feColorMatrix in="SourceAlpha" type="matrix" values="0 0 0 0 0 0 0 0 0 0 0 0 0 0 0 0 0 0 127 0" result="hardAlpha"/>
<feOffset/>
<feGaussianBlur stdDeviation="6"/>
<feColorMatrix type="matrix" values="0 0 0 0 0.780392 0 0 0 0 0.882353 0 0 0 0 0.2 0 0 0 1 0"/>
<feBlend mode="normal" in2="BackgroundImageFix" result="effect1_dropShadow_1507_417"/>
<feColorMatrix in="SourceAlpha" type="matrix" values="0 0 0 0 0 0 0 0 0 0 0 0 0 0 0 0 0 0 127 0" result="hardAlpha"/>
<feOffset/>
<feGaussianBlur stdDeviation="12"/>
<feColorMatrix type="matrix" values="0 0 0 0 0.780392 0 0 0 0 0.882353 0 0 0 0 0.2 0 0 0 1 0"/>
<feBlend mode="normal" in2="effect1_dropShadow_1507_417" result="effect2_dropShadow_1507_417"/>
<feBlend mode="normal" in="SourceGraphic" in2="effect2_dropShadow_1507_417" result="shape"/>
</filter>
<filter id="filter10_dd_1507_417" x="82.0369" y="88.53" width="92.8538" height="81.7821" filterUnits="userSpaceOnUse" color-interpolation-filters="sRGB">
<feFlood flood-opacity="0" result="BackgroundImageFix"/>
<feColorMatrix in="SourceAlpha" type="matrix" values="0 0 0 0 0 0 0 0 0 0 0 0 0 0 0 0 0 0 127 0" result="hardAlpha"/>
<feOffset/>
<feGaussianBlur stdDeviation="6"/>
<feColorMatrix type="matrix" values="0 0 0 0 0.780392 0 0 0 0 0.882353 0 0 0 0 0.2 0 0 0 1 0"/>
<feBlend mode="normal" in2="BackgroundImageFix" result="effect1_dropShadow_1507_417"/>
<feColorMatrix in="SourceAlpha" type="matrix" values="0 0 0 0 0 0 0 0 0 0 0 0 0 0 0 0 0 0 127 0" result="hardAlpha"/>
<feOffset/>
<feGaussianBlur stdDeviation="12"/>
<feColorMatrix type="matrix" values="0 0 0 0 0.780392 0 0 0 0 0.882353 0 0 0 0 0.2 0 0 0 1 0"/>
<feBlend mode="normal" in2="effect1_dropShadow_1507_417" result="effect2_dropShadow_1507_417"/>
<feBlend mode="normal" in="SourceGraphic" in2="effect2_dropShadow_1507_417" result="shape"/>
</filter>
</defs>
</svg>
